# xmcd
#
# Track frame offsets:
#	150
#	16067
#	27665
#	46225
#	59802
#	76367
#	91827
#	108647
#	118315
#	132375
#	159165
#	174595
#	186617
#	199145
#	217575
#	233862
#	250250
#	269240
#	280855
#	301020
#	318662
#
# Disc length: 4488
#
# Revision: 2
# Processed by: cddbd v1.5.1PL0 Copyright (c) Steve Scherf et al.
# Submitted via: CDmax 2.0
# Normalized: r1:DSETVAR1
#
DISCID=34118615
DTITLE=Various Artist - Rounder Summer Sampler 1 - Ride the Wave of Roots Music (Disk 1 of 2)
DYEAR=1995
DGENRE=Misc
TTITLE0=Steve Riley and the Mamou Playboys - Tes Parents Veulent Plus Me Voir
TTITLE1=Blazers - Fun and Laughter
TTITLE2=Dick Curless - King of the Blues
TTITLE3=Picketts - Boat Song
TTITLE4=Jimmy LaFave - Burden To Bear
TTITLE5=Nick Lowe - I Live On a Battlefield
TTITLE6=Davell Crawford - Something You Got
TTITLE7=Brave Combo - Hosa Dyna
TTITLE8=Simon and the Bar Sinisters - Speed, Weed and Whiskey
TTITLE9=David Tronzo and Reeves Gabrels - Bubba
TTITLE10=Kevin Welch - Pushing Up Daisies
TTITLE11=Tammy Rogers and Don Heffington - In the Red
TTITLE12=Laurie Lewis and Tom Rozum - My Dixie Darlin'
TTITLE13=Kristina Olsen - Hurry On Home
TTITLE14=Burns Sisters - We Never Said Goodbye
TTITLE15=Vance Gilbert - Scene of the Crime
TTITLE16=Abra Moore - Sweet Chariot
TTITLE17=Ralph Blizard and the New Southern Ramblers - Mississippi Sawyer
TTITLE18=Burning Spear - Burning Reggae
TTITLE19=Gregory Isaacs - (I Must Be) Dreaming
TTITLE20=Nardo Ranks - Cool and Humble
EXTD=LABEL =Rounder Records Corp.\nID =PR1039-1\nUPC =none\nCOPYRIGHT =1995
EXTT0=
EXTT1=
EXTT2=
EXTT3=
EXTT4=
EXTT5=
EXTT6=
EXTT7=
EXTT8=
EXTT9=
EXTT10=
EXTT11=
EXTT12=
EXTT13=
EXTT14=
EXTT15=
EXTT16=
EXTT17=
EXTT18=
EXTT19=
EXTT20=
PLAYORDER=
